<?xml version="1.0" encoding="UTF-8" standalone="no"?>
<!DOCTYPE svg PUBLIC "-//W3C//DTD SVG 20010904//EN"
"http://www.w3.org/TR/2001/REC-SVG-20010904/DTD/svg10.dtd">
<!-- Created with Inkscape (http://www.inkscape.org/) -->
<svg
   version="1.0"
   width="1200.0000pt"
   height="900.00000pt"
   viewBox="0 0 401.391 401.391"
   id="Layer_1"
   xml:space="preserve"
   xmlns="http://www.w3.org/2000/svg"
   xmlns:xml="http://www.w3.org/XML/1998/namespace"
   xmlns:sodipodi="http://sodipodi.sourceforge.net/DTD/sodipodi-0.dtd"
   xmlns:inkscape="http://www.inkscape.org/namespaces/inkscape"
   xmlns:xlink="http://www.w3.org/1999/xlink"
   sodipodi:version="0.32"
   inkscape:version="0.39"
   xmlns:rdf="http://www.w3.org/1999/02/22-rdf-syntax-ns#"
   xmlns:cc="http://web.resource.org/cc/"
   xmlns:dc="http://purl.org/dc/elements/1.1/"
   sodipodi:docname="Wikimedia_Foundation_RGB_logo_with_text.svg"
   sodipodi:docbase="/home/olpc"
   inkscape:export-filename="/home/olpc/conf/bg.jpg"
   inkscape:export-xdpi="72.000000"
   inkscape:export-ydpi="72.000000"><sodipodi:namedview
   id="base"
   pagecolor="#000000"
   bordercolor="#666666"
   borderopacity="1.0"
   inkscape:pageopacity="0.0000000"
   inkscape:pageshadow="2"
   inkscape:zoom="0.43415836"
   inkscape:cx="305.25953"
   inkscape:cy="422.45609"
   inkscape:window-width="1192"
   inkscape:window-height="868"
   showgrid="true"
   gridspacingy="30.000000pt"
   gridspacingx="30.000000pt"
   gridoriginy="0.0000000pt"
   gridoriginx="0.0000000pt"
   inkscape:window-x="0"
   inkscape:window-y="24" />
<defs
   id="defs64">
	
	

		
		
		
	
			
			
			
			
			
			
			
			
			
			
		
			
			
			
			
			
			
			
			
			
		
			
			
			
		</defs>

<circle
   cx="200.724"
   cy="63.001999"
   r="45"
   style="fill:#990000"
   id="circle9" />
<path
   d="M 291.578,53.149 L 266.08,78.646 C 286.705,96.789 299.725,123.373 299.725,153.001 C 299.725,207.677 255.401,252.001 200.724,252.001 C 146.048,252.001 101.724,207.677 101.724,153.001 C 101.724,123.373 114.744,96.789 135.369,78.646 L 109.871,53.148 C 82.748,77.84 65.724,113.432 65.724,153.001 C 65.724,227.56 126.165,288.001 200.724,288.001 C 275.284,288.001 335.725,227.56 335.725,153.001 C 335.725,113.433 318.7,77.841 291.578,53.149 z "
   style="fill:#006699"
   id="path11" />
<g
   id="g13">
				<path
   d="M 253.31,91.417 L 209.725,135.001 L 209.725,233.491 C 250.223,229.012 281.725,194.692 281.725,153.001 C 281.725,128.343 270.691,106.274 253.31,91.417 z "
   style="fill:#339966"
   id="path15" />

				<path
   d="M 191.724,135.002 L 148.14,91.417 C 130.758,106.273 119.724,128.343 119.724,153.001 C 119.724,194.692 151.227,229.013 191.724,233.491 L 191.724,135.002 z "
   style="fill:#339966"
   id="path17" />

			</g>
<path
   d="M 88.273,303.54 L 71.867,341.946 L 65.25,341.946 L 55.406,319.602 L 45.316,341.946 L 38.644,341.946 L 22.566,303.54 L 34.406,303.54 L 42.281,324.54 L 51.304,303.54 L 59.48,303.54 L 68.339,324.54 L 76.569,303.54 L 88.273,303.54 z "
   style="fill:#484848"
   id="path21" />
<path
   d="M 104.984,341.446 L 93.578,341.446 L 93.578,303.54 L 104.984,303.54 L 104.984,341.446 L 104.984,341.446 z "
   style="fill:#484848"
   id="path23" />
<path
   d="M 154.445,341.446 L 140.5,341.446 L 126.008,323.696 L 126.008,341.446 L 114.602,341.446 L 114.602,303.54 L 126.008,303.54 L 126.008,320.509 L 139.735,303.54 L 152.149,303.54 L 138.04,321.29 L 154.445,341.446 z "
   style="fill:#484848"
   id="path25" />
<path
   d="M 170.882,341.446 L 159.476,341.446 L 159.476,303.54 L 170.882,303.54 L 170.882,341.446 z "
   style="fill:#484848"
   id="path27" />
<path
   d="M 224.531,341.446 L 213.124,341.446 L 213.124,319.477 L 202.809,332.196 L 201.906,332.196 L 191.563,319.477 L 191.563,341.446 L 180.469,341.446 L 180.469,303.54 L 190.825,303.54 L 202.48,317.759 L 214.189,303.54 L 224.532,303.54 L 224.532,341.446 L 224.531,341.446 z "
   style="fill:#484848"
   id="path29" />
<path
   d="M 262.699,341.446 L 234.148,341.446 L 234.148,303.54 L 262.234,303.54 L 262.234,311.165 L 245.554,311.165 L 245.554,318.103 L 261.468,318.103 L 261.468,325.728 L 245.554,325.728 L 245.554,333.822 L 262.699,333.822 L 262.699,341.446 z "
   style="fill:#484848"
   id="path31" />
<path
   d="M 309.316,323.19 C 309.316,327.071 308.609,330.186 307.196,332.536 C 305.783,334.888 304.119,336.791 302.205,338.249 C 299.49,340.38 295.693,341.446 290.812,341.446 L 290.239,341.446 L 270.379,341.446 L 270.379,303.54 L 286.114,303.54 C 288.482,303.54 290.508,303.663 292.193,303.911 C 293.877,304.157 295.393,304.505 296.741,304.952 C 298.089,305.401 299.236,305.903 300.183,306.462 C 301.13,307.019 301.976,307.618 302.724,308.258 C 304.018,309.316 305.154,310.565 306.128,312.005 C 307.105,313.445 307.88,315.113 308.454,317.009 C 309.029,318.905 309.316,320.966 309.316,323.19 z M 297.691,322.698 C 297.691,319.619 297.103,317.219 295.928,315.497 C 294.753,313.775 293.341,312.622 291.692,312.04 C 290.043,311.456 288.363,311.165 286.65,311.165 L 281.785,311.165 L 281.785,333.603 L 286.65,333.603 C 289.638,333.603 292.224,332.892 294.412,331.472 C 296.598,330.05 297.691,327.126 297.691,322.698 z "
   style="fill:#484848"
   id="path33" />
<path
   d="M 327.836,341.446 L 316.43,341.446 L 316.43,303.54 L 327.836,303.54 L 327.836,341.446 z "
   style="fill:#484848"
   id="path35" />
<path
   d="M 379.047,341.446 L 367.344,341.446 L 364.254,333.758 L 347.793,333.758 L 344.648,341.446 L 332.945,341.446 L 349.707,303.54 L 362.34,303.54 L 379.047,341.446 z M 361.629,327.165 L 356.078,313.321 L 350.473,327.165 L 361.629,327.165 z "
   style="fill:#484848"
   id="path37" />
<path
   d="M 91.512,373.227 L 82.08,373.227 L 82.08,382.446 L 75.236,382.446 L 75.236,359.696 L 91.511,359.696 L 91.511,364.258 L 82.079,364.258 L 82.079,368.664 L 91.511,368.664 L 91.511,373.227 L 91.512,373.227 z "
   style="fill:#666666"
   id="path41" />
<path
   d="M 120.419,371.062 C 120.419,373.181 119.93,375.13 118.952,376.912 C 117.974,378.691 116.518,380.106 114.584,381.154 C 112.65,382.203 110.295,382.727 107.52,382.727 C 104.712,382.727 102.335,382.181 100.391,381.089 C 98.446,379.997 97.001,378.56 96.056,376.78 C 95.111,374.999 94.639,373.093 94.639,371.061 C 94.639,369.02 95.109,367.111 96.048,365.336 C 96.987,363.561 98.433,362.131 100.383,361.043 C 102.333,359.957 104.713,359.413 107.521,359.413 C 109.619,359.413 111.49,359.725 113.134,360.348 C 114.779,360.97 116.131,361.814 117.191,362.878 C 118.251,363.943 119.054,365.183 119.6,366.597 C 120.146,368.013 120.419,369.501 120.419,371.062 z M 113.451,371.062 C 113.451,370.212 113.325,369.436 113.073,368.733 C 112.821,368.03 112.44,367.42 111.931,366.902 C 111.422,366.384 110.8,365.981 110.067,365.692 C 109.333,365.403 108.484,365.258 107.521,365.258 C 105.681,365.258 104.235,365.792 103.184,366.861 C 102.133,367.93 101.607,369.33 101.607,371.062 C 101.607,372.796 102.135,374.199 103.192,375.273 C 104.249,376.347 105.692,376.883 107.521,376.883 C 108.78,376.883 109.854,376.636 110.741,376.14 C 111.628,375.644 112.302,374.956 112.762,374.079 C 113.222,373.202 113.451,372.196 113.451,371.062 z "
   style="fill:#666666"
   id="path43" />
<path
   d="M 148.391,372.245 C 148.391,374.191 148.027,375.85 147.301,377.224 C 146.574,378.596 145.613,379.681 144.416,380.48 C 143.219,381.279 141.93,381.853 140.547,382.203 C 139.164,382.553 137.785,382.727 136.408,382.727 C 134.484,382.727 132.613,382.4 130.793,381.744 C 128.973,381.088 127.451,379.973 126.227,378.396 C 125.003,376.822 124.391,374.771 124.391,372.246 L 124.391,359.696 L 131.235,359.696 L 131.235,370.486 C 131.235,371.986 131.451,373.226 131.882,374.207 C 132.313,375.188 132.915,375.904 133.686,376.358 C 134.457,376.812 135.366,377.04 136.415,377.04 C 137.42,377.04 138.311,376.816 139.087,376.367 C 139.863,375.918 140.467,375.207 140.899,374.232 C 141.331,373.257 141.547,372.019 141.547,370.519 L 141.547,359.696 L 148.391,359.696 L 148.391,372.245 z "
   style="fill:#666666"
   id="path45" />
<path
   d="M 178.462,382.445 L 172.357,382.445 L 160.556,369.789 L 160.556,382.445 L 153.775,382.445 L 153.775,359.695 L 159.852,359.695 L 171.619,372.32 L 171.619,359.695 L 178.463,359.695 L 178.463,382.445 L 178.462,382.445 z "
   style="fill:#666666"
   id="path47" />
<path
   d="M 207.551,371.493 C 207.551,373.823 207.127,375.694 206.28,377.104 C 205.432,378.516 204.434,379.659 203.288,380.534 C 201.661,381.808 199.384,382.445 196.458,382.445 L 196.114,382.445 L 184.207,382.445 L 184.207,359.695 L 193.641,359.695 C 195.06,359.695 196.275,359.769 197.285,359.917 C 198.295,360.064 199.204,360.272 200.012,360.54 C 200.819,360.809 201.508,361.109 202.075,361.443 C 202.643,361.777 203.151,362.135 203.598,362.518 C 204.374,363.153 205.055,363.904 205.639,364.77 C 206.225,365.635 206.689,366.637 207.034,367.778 C 207.378,368.917 207.551,370.155 207.551,371.493 z M 200.582,371.196 C 200.582,369.344 200.229,367.9 199.525,366.864 C 198.821,365.828 197.975,365.135 196.987,364.784 C 195.999,364.433 194.992,364.258 193.966,364.258 L 191.051,364.258 L 191.051,377.758 L 193.966,377.758 C 195.757,377.758 197.307,377.331 198.617,376.476 C 199.927,375.621 200.582,373.86 200.582,371.196 z "
   style="fill:#666666"
   id="path49" />
<path
   d="M 235.319,382.445 L 228.299,382.445 L 226.445,377.851 L 216.57,377.851 L 214.683,382.445 L 207.662,382.445 L 217.718,359.695 L 225.296,359.695 L 235.319,382.445 z M 224.87,373.883 L 221.541,365.571 L 218.179,373.883 L 224.87,373.883 z "
   style="fill:#666666"
   id="path51" />
<path
   d="M 256.771,365.227 L 248.439,365.227 L 248.439,382.446 L 241.595,382.446 L 241.595,365.227 L 233.261,365.227 L 233.261,359.696 L 256.771,359.696 L 256.771,365.227 z "
   style="fill:#666666"
   id="path53" />
<path
   d="M 267.683,382.445 L 260.839,382.445 L 260.839,359.695 L 267.683,359.695 L 267.683,382.445 z "
   style="fill:#666666"
   id="path55" />
<path
   d="M 297.722,371.062 C 297.722,373.181 297.234,375.13 296.255,376.912 C 295.276,378.691 293.821,380.106 291.888,381.154 C 289.952,382.203 287.599,382.727 284.824,382.727 C 282.015,382.727 279.638,382.181 277.695,381.089 C 275.75,379.997 274.304,378.56 273.359,376.78 C 272.414,374.999 271.941,373.093 271.941,371.061 C 271.941,369.02 272.412,367.111 273.351,365.336 C 274.29,363.561 275.736,362.131 277.685,361.043 C 279.636,359.957 282.015,359.413 284.824,359.413 C 286.922,359.413 288.793,359.725 290.437,360.348 C 292.082,360.97 293.433,361.814 294.494,362.878 C 295.553,363.943 296.357,365.183 296.902,366.597 C 297.448,368.013 297.722,369.501 297.722,371.062 z M 290.753,371.062 C 290.753,370.212 290.628,369.436 290.376,368.733 C 290.124,368.03 289.743,367.42 289.233,366.902 C 288.723,366.384 288.102,365.981 287.37,365.692 C 286.636,365.403 285.786,365.258 284.823,365.258 C 282.983,365.258 281.538,365.792 280.485,366.861 C 279.434,367.929 278.909,369.33 278.909,371.062 C 278.909,372.796 279.438,374.199 280.495,375.273 C 281.552,376.347 282.993,376.883 284.823,376.883 C 286.083,376.883 287.155,376.636 288.042,376.14 C 288.929,375.644 289.603,374.956 290.063,374.079 C 290.522,373.202 290.753,372.196 290.753,371.062 z "
   style="fill:#666666"
   id="path57" />
<path
   d="M 326.218,382.445 L 320.113,382.445 L 308.312,369.789 L 308.312,382.445 L 301.531,382.445 L 301.531,359.695 L 307.607,359.695 L 319.375,372.32 L 319.375,359.695 L 326.219,359.695 L 326.219,382.445 L 326.218,382.445 z "
   style="fill:#666666"
   id="path59" />
<rect
   width="401.39099"
   height="401.39099"
   x="0"
   y="0"
   style="fill:none"
   id="rect61" />

<metadata
   id="metadata942">
  <rdf:RDF
     id="RDF943">
    <cc:Work
       rdf:about=""
       id="Work944">
      <dc:format
         id="format945">image/svg+xml</dc:format>
      <dc:type
         id="type947"
         rdf:resource="http://purl.org/dc/dcmitype/StillImage" />
    </cc:Work>
  </rdf:RDF>
</metadata>
</svg>
